<svg width="20" height="20" viewBox="0 0 20 20" fill="none" xmlns="http://www.w3.org/2000/svg">
<path d="M0 18.4616V1.53846C0 1.13044 0.162087 0.739123 0.450604 0.450604C0.739123 0.162087 1.13044 0 1.53846 0H18.4616C18.8696 0 19.2609 0.162087 19.5494 0.450604C19.8379 0.739123 20 1.13044 20 1.53846V18.4616C20 18.8696 19.8379 19.2609 19.5494 19.5494C19.2609 19.8379 18.8696 20 18.4616 20H13.8462V12.7077H14.9384C15.1874 12.7077 15.426 12.6088 15.602 12.4328C15.778 12.2568 15.8769 12.0181 15.8769 11.7692V10.5846C15.8769 10.4614 15.8527 10.3393 15.8054 10.2255C15.7583 10.1116 15.6891 10.0082 15.602 9.92103C15.5149 9.83389 15.4114 9.76476 15.2976 9.71759C15.1837 9.67043 15.0617 9.64616 14.9384 9.64616H13.9077V8.2C13.9077 6.90769 14.4923 6.90769 15.0769 6.90769H15.8307C15.9546 6.91279 16.078 6.89063 16.1923 6.84279C16.3066 6.79493 16.409 6.72256 16.4923 6.63077C16.5817 6.54566 16.6524 6.44291 16.7001 6.32904C16.7479 6.21517 16.7713 6.09266 16.7693 5.96923V4.83077C16.7733 4.70549 16.7527 4.58063 16.7086 4.46333C16.6643 4.34603 16.5974 4.23859 16.5117 4.14714C16.426 4.0557 16.3231 3.98206 16.2089 3.9304C16.0947 3.87876 15.9714 3.85013 15.8461 3.84616H14.0769C13.5607 3.82674 13.0464 3.91963 12.5696 4.1184C12.0927 4.31716 11.6647 4.61706 11.3151 4.99739C10.9655 5.37771 10.7026 5.8294 10.5446 6.32124C10.3866 6.8131 10.3373 7.33337 10.4 7.84616V9.64616H9.41539C9.29086 9.64411 9.16717 9.66689 9.05153 9.71313C8.93589 9.75937 8.8306 9.82817 8.74183 9.91553C8.65304 10.0029 8.58254 10.107 8.53441 10.2219C8.4863 10.3368 8.46153 10.4601 8.46154 10.5846V11.7692C8.46153 11.8938 8.4863 12.0171 8.53441 12.132C8.58254 12.2468 8.65304 12.351 8.74183 12.4383C8.8306 12.5257 8.93589 12.5945 9.05153 12.6407C9.16717 12.687 9.29086 12.7097 9.41539 12.7077H10.4V20H1.53846C1.13044 20 0.739123 19.8379 0.450604 19.5494C0.162087 19.2609 0 18.8696 0 18.4616Z" fill="#D9AD8A"/>
</svg>
