<svg width="20" height="20" viewBox="0 0 20 20" fill="none" xmlns="http://www.w3.org/2000/svg">
<g clip-path="url(#clip0_32_720)">
<path fill-rule="evenodd" clip-rule="evenodd" d="M0 2.61628C0 1.46691 0.931756 0.535156 2.08113 0.535156H17.9189C19.0683 0.535156 20 1.46691 20 2.61628V13.454C20 14.6034 19.0683 15.5352 17.9189 15.5352H12.1671L12.9316 17.6714H14.2857C14.8774 17.6714 15.3571 18.1512 15.3571 18.7429C15.3571 19.3346 14.8774 19.8143 14.2857 19.8143H5.71426C5.12253 19.8143 4.64283 19.3346 4.64283 18.7429C4.64283 18.1512 5.12253 17.6714 5.71426 17.6714H7.06837L7.83294 15.5352H2.08113C0.931757 15.5352 0 14.6034 0 13.454V2.61628ZM7.90047 5.13137C8.31889 5.54979 8.31889 6.22818 7.90047 6.6466L6.51523 8.03184L7.90047 9.41708C8.31889 9.8355 8.31889 10.5139 7.90047 10.9323C7.48206 11.3507 6.80366 11.3507 6.38524 10.9323L4.24239 8.78946C3.82397 8.37104 3.82397 7.69264 4.24239 7.27423L6.38524 5.13137C6.80366 4.71296 7.48206 4.71296 7.90047 5.13137ZM13.6148 5.13137C13.1963 4.71296 12.5179 4.71296 12.0995 5.13137C11.6811 5.54979 11.6811 6.22818 12.0995 6.6466L13.4848 8.03184L12.0995 9.41708C11.6811 9.8355 11.6811 10.5139 12.0995 10.9323C12.5179 11.3507 13.1963 11.3507 13.6148 10.9323L15.7576 8.78946C16.176 8.37104 16.176 7.69264 15.7576 7.27423L13.6148 5.13137Z" fill="#D9AD8A"/>
</g>
<defs>
<clipPath id="clip0_32_720">
<rect width="20" height="20" fill="white"/>
</clipPath>
</defs>
</svg>
