<svg width="20" height="20" viewBox="0 0 20 20" fill="none" xmlns="http://www.w3.org/2000/svg">
<g clip-path="url(#clip0_31_408)">
<path fill-rule="evenodd" clip-rule="evenodd" d="M6.89031 2.32363C6.9573 2.25666 7.04814 2.21903 7.14286 2.21903H12.8571C12.9519 2.21903 13.0427 2.25666 13.1097 2.32363C13.1767 2.3906 13.2143 2.48145 13.2143 2.57618V4.2855H6.78571V2.57618C6.78571 2.48145 6.82334 2.3906 6.89031 2.32363ZM4.64286 4.2855V2.57618C4.64286 1.91313 4.90624 1.27725 5.37509 0.808405C5.84393 0.339564 6.47981 0.0761719 7.14286 0.0761719H12.8571C13.5202 0.0761719 14.1561 0.339564 14.6249 0.808405C15.0937 1.27725 15.3571 1.91313 15.3571 2.57618V4.2855H17.8571C19.0406 4.2855 20 5.24489 20 6.42836V17.8569C20 19.0404 19.0406 19.9998 17.8571 19.9998H2.14286C0.95939 19.9998 0 19.0404 0 17.8569V6.42836C0 5.24489 0.95939 4.2855 2.14286 4.2855H4.64286ZM4.10714 9.3972C4.10714 8.90409 4.50689 8.50435 5 8.50435H15C15.4931 8.50435 15.8929 8.90409 15.8929 9.3972C15.8929 9.8903 15.4931 10.2901 15 10.2901H5C4.50689 10.2901 4.10714 9.8903 4.10714 9.3972ZM5 13.9952C4.50689 13.9952 4.10714 14.3949 4.10714 14.8881C4.10714 15.3812 4.50689 15.7809 5 15.7809H15C15.4931 15.7809 15.8929 15.3812 15.8929 14.8881C15.8929 14.3949 15.4931 13.9952 15 13.9952H5Z" fill="#D9AD8A"/>
</g>
<defs>
<clipPath id="clip0_31_408">
<rect width="20" height="20" fill="white"/>
</clipPath>
</defs>
</svg>
