<svg width="20" height="20" viewBox="0 0 20 20" fill="none" xmlns="http://www.w3.org/2000/svg">
<path fill-rule="evenodd" clip-rule="evenodd" d="M6.43143 7.22881C4.90336 7.25231 3.67188 8.49834 3.67188 10.032C3.67188 11.5803 4.92706 12.8355 6.4754 12.8355H9.27892V7.22881H6.43143ZM14.2959 7.22881C15.8117 7.26606 17.0291 8.5066 17.0291 10.0315C17.0291 11.5798 15.774 12.835 14.2256 12.835C12.6773 12.835 11.4221 11.5798 11.4221 10.0315C11.4221 8.5066 12.6396 7.26606 14.1555 7.22881H14.2959ZM14.6131 0.253906C15.9474 0.253906 17.0291 1.3356 17.0291 2.66993C17.0291 4.00427 15.9474 5.08596 14.6131 5.08596H14.3189C14.2879 5.08538 14.2568 5.0851 14.2256 5.0851C14.1945 5.0851 14.1634 5.08538 14.1324 5.08596H11.4221V0.253906H14.6131ZM3.67188 2.66993C3.67188 1.3356 4.75357 0.253906 6.0879 0.253906H9.27892V5.08563H6.4754C6.4559 5.08563 6.43643 5.08574 6.41699 5.08596H6.0879C4.75357 5.08596 3.67188 4.00427 3.67188 2.66993ZM6.0879 14.9796C4.75357 14.9796 3.67188 16.0613 3.67188 17.3956C3.67188 18.73 4.75357 19.8117 6.0879 19.8117H6.4754C8.02375 19.8117 9.27892 18.5564 9.27892 17.0081V14.9796H6.0879Z" fill="#D9AD8A"/>
</svg>
