<svg width="20" height="18" viewBox="0 0 20 18" fill="none" xmlns="http://www.w3.org/2000/svg">
<path fill-rule="evenodd" clip-rule="evenodd" d="M0 2.92801C0 1.74454 0.95939 0.785156 2.14286 0.785156H17.8571C19.0406 0.785156 20 1.74454 20 2.92801V3.41651L10.5477 9.71916C10.4144 9.80487 10.2209 9.86606 9.99999 9.86606C9.7791 9.86606 9.58559 9.80487 9.45227 9.71916L0 3.41653V2.92801ZM0 5.5628V15.0709C0 16.2543 0.95939 17.2137 2.14286 17.2137H17.8571C19.0406 17.2137 20 16.2543 20 15.0709V5.56278L11.5334 11.2082L11.5252 11.2137C11.0757 11.5062 10.5359 11.6518 9.99999 11.6518C9.46409 11.6518 8.92431 11.5062 8.47481 11.2136L8.46653 11.2082L0 5.5628Z" fill="#D9AD8A"/>
</svg>
