<svg width="20" height="20" viewBox="0 0 20 20" fill="none" xmlns="http://www.w3.org/2000/svg">
<path fill-rule="evenodd" clip-rule="evenodd" d="M6.15385 2.30769H2.30769V17.6923H17.6923V6.92308C17.6923 6.28583 18.2089 5.76923 18.8462 5.76923C19.4834 5.76923 20 6.28583 20 6.92308V17.8205C20 18.3615 19.8077 18.9018 19.4334 19.3177C19.0555 19.7374 18.5155 20 17.9231 20H2.07692C1.48451 20 0.9444 19.7374 0.566562 19.3177C0.192343 18.9018 0 18.3615 0 17.8205V2.17949C0 1.6384 0.192343 1.09817 0.566562 0.682368C0.944385 0.262557 1.48451 0 2.07692 0H6.15385C6.79109 0 7.30769 0.516594 7.30769 1.15385C7.30769 1.79109 6.79109 2.30769 6.15385 2.30769ZM13.0769 10C13.388 10 13.6685 10.1874 13.7876 10.4749C13.9067 10.7623 13.8408 11.0932 13.6208 11.3132L10.5439 14.3901C10.2435 14.6905 9.75648 14.6905 9.45608 14.3901L6.37915 11.3132C6.15915 11.0932 6.09334 10.7623 6.2124 10.4749C6.33146 10.1874 6.61195 10 6.92308 10H8.84615V7.30769C8.84615 3.27177 12.1179 0 16.1538 0H18.8462C19.4834 0 20 0.516594 20 1.15385C20 1.79109 19.4834 2.30769 18.8462 2.30769H16.1538C13.3924 2.30769 11.1538 4.54626 11.1538 7.30769V10H13.0769Z" fill="#D9AD8A"/>
</svg>
