<svg width="20" height="20" viewBox="0 0 20 20" fill="none" xmlns="http://www.w3.org/2000/svg">
<path fill-rule="evenodd" clip-rule="evenodd" d="M1.04605 1.04605C1.71581 0.376274 2.62423 0 3.57143 0H17.1429C17.9006 0 18.6273 0.30102 19.1631 0.836837C19.699 1.37266 20 2.09939 20 2.85714V7.85714C20 8.25163 19.6801 8.57143 19.2857 8.57143H17.507V3.57143C17.507 3.07831 17.1073 2.67857 16.6141 2.67857C16.121 2.67857 15.7213 3.07831 15.7213 3.57143V8.57143H15.7143V19.2857C15.7143 19.543 15.5759 19.7804 15.3519 19.9073C15.128 20.0341 14.8531 20.0306 14.6326 19.8981L11.4286 17.9759L8.22464 19.8981C7.99844 20.034 7.71584 20.034 7.48964 19.8981L4.28571 17.9759L1.08178 19.8981C0.861119 20.0306 0.586293 20.0341 0.362359 19.9073C0.138423 19.7804 0 19.543 0 19.2857V3.57143C0 2.62423 0.376274 1.71581 1.04605 1.04605ZM7.8571 2.85714C8.44883 2.85714 8.92853 3.33684 8.92853 3.92857V4.68246C9.58173 4.79226 10.1601 5.12386 10.5817 5.59497C10.827 5.86904 11.0208 6.1917 11.1467 6.5477C11.3438 7.10561 11.0514 7.71774 10.4935 7.91494C9.93561 8.11213 9.32347 7.81971 9.12629 7.2618C9.09533 7.17421 9.04717 7.0935 8.98503 7.02407C8.8527 6.87623 8.66381 6.78571 8.45237 6.78571H7.07019C6.78159 6.78571 6.54763 7.01967 6.54763 7.30826C6.54763 7.55383 6.71863 7.76626 6.95851 7.81874L9.06294 8.27909C10.375 8.56608 11.3095 9.72844 11.3095 11.0707C11.3095 12.486 10.2802 13.6622 8.92853 13.889V14.6429C8.92853 15.2346 8.44883 15.7143 7.8571 15.7143C7.26537 15.7143 6.78567 15.2346 6.78567 14.6429V13.889C5.75211 13.7157 4.9083 12.9875 4.56763 12.0237C4.37044 11.4658 4.66286 10.8536 5.22077 10.6564C5.77867 10.4593 6.39081 10.7517 6.588 11.3096C6.68657 11.5884 6.95259 11.7857 7.26191 11.7857H8.45237C8.84634 11.7857 9.16666 11.4657 9.16666 11.0707C9.16666 10.7347 8.93256 10.4441 8.60501 10.3724L6.5006 9.9121C5.27694 9.64443 4.40477 8.56084 4.40477 7.30826C4.40477 5.93231 5.44739 4.79987 6.78567 4.65786V3.92857C6.78567 3.33684 7.26537 2.85714 7.8571 2.85714Z" fill="#D9AD8A"/>
</svg>
