<svg width="20" height="20" viewBox="0 0 20 20" fill="none" xmlns="http://www.w3.org/2000/svg">
<path fill-rule="evenodd" clip-rule="evenodd" d="M0 3.57059C0 2.38712 0.95939 1.42773 2.14286 1.42773H17.8571C19.0406 1.42773 20 2.38712 20 3.57059V12.8563C20 14.0398 19.0406 14.9992 17.8571 14.9992H14.9479L15.9583 17.02C16.223 17.5493 16.0084 18.1929 15.4791 18.4574C14.9499 18.7222 14.3063 18.5076 14.0417 17.9783L12.5521 14.9992H7.4479L5.95831 17.9783C5.69369 18.5076 5.0501 18.7222 4.52084 18.4574C3.99159 18.1929 3.77706 17.5493 4.04169 17.02L5.0521 14.9992H2.14286C0.95939 14.9992 0 14.0398 0 12.8563V3.57059ZM3.92857 7.14202C3.1396 7.14202 2.5 6.50242 2.5 5.71345C2.5 4.92448 3.1396 4.28488 3.92857 4.28488C4.71754 4.28488 5.35714 4.92448 5.35714 5.71345C5.35714 6.50242 4.71754 7.14202 3.92857 7.14202ZM3.92857 12.142C3.1396 12.142 2.5 11.5024 2.5 10.7134C2.5 9.92448 3.1396 9.28488 3.92857 9.28488C4.71754 9.28488 5.35714 9.92448 5.35714 10.7134C5.35714 11.5024 4.71754 12.142 3.92857 12.142Z" fill="#D9AD8A"/>
</svg>
