<svg width="20" height="20" viewBox="0 0 20 20" fill="none" xmlns="http://www.w3.org/2000/svg">
<path fill-rule="evenodd" clip-rule="evenodd" d="M10.5852 2.44725C10.4515 2.25631 10.2331 2.14258 10 2.14258C9.76691 2.14258 9.5485 2.25631 9.41483 2.44725L4.90307 8.89264L1.21936 5.20894C1.01508 5.00465 0.70785 4.94354 0.44094 5.05409C0.17403 5.16465 0 5.42511 0 5.71401V14.9997C0 15.7574 0.30102 16.4841 0.836837 17.02C1.37266 17.5559 2.09939 17.8569 2.85714 17.8569H17.1429C17.9006 17.8569 18.6273 17.5559 19.1631 17.02C19.699 16.4841 20 15.7574 20 14.9997V5.71401C20 5.42511 19.826 5.16465 19.559 5.05409C19.2921 4.94354 18.9849 5.00465 18.7806 5.20894L15.097 8.89264L10.5852 2.44725Z" fill="#D9AD8A"/>
</svg>
