<svg width="20" height="20" viewBox="0 0 20 20" fill="none" xmlns="http://www.w3.org/2000/svg">
<g clip-path="url(#clip0_31_385)">
<path fill-rule="evenodd" clip-rule="evenodd" d="M6.42857 1.42857C6.42857 0.639593 5.78897 0 5 0C4.21103 0 3.57143 0.639593 3.57143 1.42857V2.85714H2.14286C0.95939 2.85714 0 3.81653 0 5V17.8571C0 19.0406 0.95939 20 2.14286 20H17.8571C19.0406 20 20 19.0406 20 17.8571V5C20 3.81653 19.0406 2.85714 17.8571 2.85714H16.4287V1.42857C16.4287 0.639593 15.7891 0 15.0001 0C14.2112 0 13.5716 0.639593 13.5716 1.42857V2.85714H6.42857V1.42857ZM9.98391 7.32156C10.1173 7.319 10.2488 7.35381 10.3635 7.42207C10.4782 7.49034 10.5715 7.58933 10.6329 7.70786L10.6355 7.71307L11.6989 9.85217L11.7031 9.85304L14.0588 10.2107C14.1918 10.2289 14.3171 10.2841 14.4203 10.3702C14.5246 10.4572 14.6019 10.5721 14.6433 10.7014C14.6847 10.8308 14.6884 10.9693 14.654 11.1006C14.6197 11.2313 14.5493 11.3496 14.4507 11.4418L12.7929 13.0173C12.8052 13.0461 12.8137 13.0764 12.8181 13.1075L13.1502 15.4443C13.1751 15.5756 13.1628 15.7113 13.1144 15.8361C13.0644 15.9651 12.9781 16.077 12.8658 16.1579C12.7535 16.2389 12.6202 16.2854 12.4819 16.2921C12.3466 16.2987 12.2122 16.2666 12.0944 16.1997L10.0147 15.0987C10.0082 15.0966 10.0014 15.0954 9.99461 15.0954C9.98779 15.0954 9.98103 15.0966 9.97459 15.0987L7.89479 16.1997C7.77703 16.2666 7.64266 16.2987 7.50731 16.2921C7.36906 16.2854 7.23573 16.2389 7.12346 16.1579C7.01119 16.077 6.9248 15.9651 6.8748 15.8361C6.82579 15.7097 6.81377 15.572 6.84003 15.439L7.23424 13.0984C7.23637 13.0858 7.23917 13.0733 7.24263 13.061L5.53639 11.4274L5.52921 11.4203C5.43696 11.3269 5.37221 11.2098 5.34207 11.082C5.31193 10.9542 5.31754 10.8206 5.3583 10.6958C5.39906 10.571 5.47339 10.4598 5.57314 10.3744C5.6729 10.289 5.79423 10.2327 5.92384 10.2117L5.92917 10.2109L8.28993 9.86484L8.29164 9.86191L9.35227 7.72834C9.40911 7.60937 9.49776 7.50839 9.60844 7.4366C9.72042 7.36397 9.85047 7.32413 9.98391 7.32156Z" fill="#D9AD8A"/>
</g>
<defs>
<clipPath id="clip0_31_385">
<rect width="20" height="20" fill="white"/>
</clipPath>
</defs>
</svg>
