<svg width="20" height="20" viewBox="0 0 20 20" fill="none" xmlns="http://www.w3.org/2000/svg">
<g clip-path="url(#clip0_54_36)">
<path fill-rule="evenodd" clip-rule="evenodd" d="M2.24833 1.28237C2.24833 0.690633 1.76863 0.210938 1.1769 0.210938C0.585163 0.210938 0.105469 0.690633 0.105469 1.28237V18.7156C0.105469 19.3075 0.585163 19.7871 1.1769 19.7871H18.6102C19.202 19.7871 19.6817 19.3075 19.6817 18.7156C19.6817 18.1239 19.202 17.6442 18.6102 17.6442H2.24833V1.28237ZM14.6017 3.47229C14.2868 3.24743 13.8943 3.15986 13.5138 3.2296C13.1333 3.29934 12.7973 3.52044 12.5827 3.84233L8.18521 10.4386L6.06484 8.3182C5.50694 7.7603 4.60243 7.7603 4.04453 8.3182C3.48664 8.87609 3.48664 9.78062 4.04453 10.3385L7.3971 13.6911C7.69973 13.9937 8.1221 14.1447 8.54801 14.1025C8.97391 14.0604 9.35849 13.8294 9.59589 13.4733L14.1416 6.6548L17.6345 9.1498C18.2767 9.60839 19.1688 9.45969 19.6274 8.81767C20.086 8.17564 19.9372 7.28343 19.2952 6.82484L14.6017 3.47229Z" fill="#D9AD8A"/>
</g>
<defs>
<clipPath id="clip0_54_36">
<rect width="20" height="20" fill="white"/>
</clipPath>
</defs>
</svg>
