<svg width="20" height="20" viewBox="0 0 20 20" fill="none" xmlns="http://www.w3.org/2000/svg">
<g clip-path="url(#clip0_32_749)">
<path fill-rule="evenodd" clip-rule="evenodd" d="M14.968 0.122527C13.8399 -0.102431 12.6713 -0.00613701 11.5953 0.400447C10.5193 0.807031 9.57902 1.50756 8.8816 2.42231C8.18418 3.33704 7.75761 4.42921 7.65044 5.57448C7.56581 6.47905 7.68311 7.38802 7.99021 8.23678L0.658881 15.5681C-0.190052 16.417 -0.175974 17.7977 0.690094 18.6292L1.49121 19.3982C2.32938 20.2029 3.65612 20.193 4.48218 19.3759L11.9146 12.0239C12.735 12.2897 13.605 12.3811 14.4684 12.2885C15.6008 12.1671 16.6775 11.734 17.5784 11.0373C18.4794 10.3407 19.1695 9.40773 19.5721 8.34228C19.9743 7.27771 20.0734 6.12254 19.8587 5.00501C19.8128 4.75782 19.7155 4.52301 19.5733 4.31568C19.4304 4.10758 19.2454 3.93185 19.0303 3.79988C18.7487 3.62712 18.3854 3.67005 18.1517 3.90366L15.2945 6.76081L15.2854 6.77018C15.2188 6.83931 15.1388 6.89429 15.0505 6.93185C14.9621 6.96942 14.8671 6.98876 14.7711 6.98876C14.6751 6.98876 14.5801 6.96942 14.4917 6.93185C14.4034 6.89429 14.3234 6.83931 14.2568 6.77018C14.2446 6.75751 14.2319 6.74529 14.2188 6.73356L13.1535 5.78042C13.0311 5.64849 12.9627 5.47494 12.9627 5.29445C12.9627 5.10848 13.0353 4.92988 13.1649 4.79658L16.0191 1.94238C16.2251 1.73631 16.2854 1.42569 16.1711 1.15753C16.0678 0.914854 15.9125 0.697845 15.7161 0.521858C15.5195 0.345872 15.2868 0.215207 15.0344 0.13911C15.0125 0.132525 14.9903 0.126991 14.968 0.122527Z" fill="#D9AD8A"/>
</g>
<defs>
<clipPath id="clip0_32_749">
<rect width="20" height="20" fill="white"/>
</clipPath>
</defs>
</svg>
