<svg width="20" height="20" viewBox="0 0 20 20" fill="none" xmlns="http://www.w3.org/2000/svg">
<g clip-path="url(#clip0_31_382)">
<path fill-rule="evenodd" clip-rule="evenodd" d="M5 0C5.78897 0 6.42857 0.639593 6.42857 1.42857V2.85714H13.5716V1.42857C13.5716 0.639593 14.2112 0 15.0001 0C15.7891 0 16.4287 0.639593 16.4287 1.42857V2.85714H17.8571C19.0406 2.85714 20 3.81653 20 5V17.8571C20 19.0406 19.0406 20 17.8571 20H2.14286C0.95939 20 0 19.0406 0 17.8571V5C0 3.81653 0.95939 2.85714 2.14286 2.85714H3.57143V1.42857C3.57143 0.639593 4.21103 0 5 0ZM12.2325 7.24746C12.1655 7.18044 12.0745 7.1428 11.9798 7.14286C11.885 7.14291 11.7941 7.18063 11.7271 7.24773L5.83741 13.15C5.78276 13.2048 5.74737 13.2758 5.73657 13.3524L5.36063 16.0216C5.34503 16.1324 5.38224 16.2441 5.46117 16.3234C5.54009 16.4027 5.65161 16.4404 5.76247 16.4253L8.43164 16.0619C8.509 16.0514 8.58079 16.0157 8.636 15.9606L14.5383 10.0583C14.6777 9.91883 14.6777 9.6927 14.5383 9.55323L12.2325 7.24746Z" fill="#D9AD8A"/>
</g>
<defs>
<clipPath id="clip0_31_382">
<rect width="20" height="20" fill="white"/>
</clipPath>
</defs>
</svg>
