<svg width="20" height="20" viewBox="0 0 20 20" fill="none" xmlns="http://www.w3.org/2000/svg">
<g clip-path="url(#clip0_31_635)">
<path fill-rule="evenodd" clip-rule="evenodd" d="M7.84887 0.1797C8.04575 0.0620977 8.27079 0 8.50012 0C8.71445 0 8.92505 0.0542429 9.1124 0.157347C14.8076 2.80334 18.0325 8.29768 17.8333 12.8913C17.7485 14.822 17.0572 16.6083 15.718 17.9133C14.3789 19.2183 12.4549 19.9813 10.019 19.986C9.04049 20.0463 8.05969 19.9119 7.1334 19.5903C6.19977 19.2663 5.34037 18.7589 4.6058 18.0977C3.87123 17.4366 3.2763 16.6351 2.85606 15.7407C2.4358 14.8463 2.1987 13.8768 2.15872 12.8893L2.15829 12.8786C2.12912 11.736 2.41359 10.6072 2.98067 9.61484C3.54775 8.62244 4.37586 7.80436 5.37507 7.2494C5.55066 7.15189 5.75917 7.13278 5.94955 7.1968C6.13992 7.26081 6.29453 7.40201 6.37553 7.5858C6.72372 8.37593 7.21135 9.09469 7.81323 9.70853C8.51949 8.78716 8.84442 7.5967 8.83482 6.28873C8.82337 4.73069 8.33395 3.06177 7.5147 1.6407C7.38059 1.41685 7.3316 1.152 7.377 0.894747C7.42313 0.633333 7.56353 0.397909 7.77159 0.233056C7.79616 0.213594 7.82197 0.195771 7.84887 0.1797Z" fill="#D9AD8A"/>
</g>
<defs>
<clipPath id="clip0_31_635">
<rect width="20" height="20" fill="white"/>
</clipPath>
</defs>
</svg>
