<svg width="20" height="20" viewBox="0 0 20 20" fill="none" xmlns="http://www.w3.org/2000/svg">
<g clip-path="url(#clip0_31_365)">
<path fill-rule="evenodd" clip-rule="evenodd" d="M13.3622 0.209231C13.1579 0.00494599 12.8507 -0.0561652 12.5838 0.0543925C12.3169 0.164951 12.1429 0.425405 12.1429 0.714307V2.85716H3.57143C1.59899 2.85716 0 4.45615 0 6.42859V8.57145C0 9.36042 0.639593 10 1.42857 10C2.21754 10 2.85714 9.36042 2.85714 8.57145V6.42859C2.85714 6.03411 3.17694 5.71431 3.57143 5.71431H12.1429V7.85716C12.1429 8.14606 12.3169 8.40652 12.5838 8.51708C12.8507 8.62764 13.1579 8.56652 13.3622 8.36224L16.9337 4.79081C17.2126 4.51186 17.2126 4.05961 16.9337 3.78066L13.3622 0.209231ZM7.4162 11.483C7.68311 11.5935 7.85714 11.854 7.85714 12.1429V14.2857H16.4286C16.823 14.2857 17.1429 13.9659 17.1429 13.5714V11.4286C17.1429 10.6396 17.7824 10 18.5714 10C19.3604 10 20 10.6396 20 11.4286V13.5714C20 15.5439 18.401 17.1429 16.4286 17.1429H7.85714V19.2857C7.85714 19.5746 7.68311 19.835 7.4162 19.9456C7.14929 20.0562 6.84207 19.9952 6.63779 19.7909L3.06636 16.2194C2.7874 15.9404 2.7874 15.4882 3.06636 15.2092L6.63779 11.6378C6.84207 11.4335 7.14929 11.3724 7.4162 11.483Z" fill="#D9AD8A"/>
</g>
<defs>
<clipPath id="clip0_31_365">
<rect width="20" height="20" fill="white"/>
</clipPath>
</defs>
</svg>
