<svg width="20" height="20" viewBox="0 0 20 20" fill="none" xmlns="http://www.w3.org/2000/svg">
<path fill-rule="evenodd" clip-rule="evenodd" d="M15 0H18.5714C19.3604 0 20 0.639593 20 1.42857V5C20 5.78897 19.3604 6.42857 18.5714 6.42857H17.2601L15.9761 10.0239C16.64 10.1469 17.1429 10.729 17.1429 11.4286V15C17.1429 15.789 16.5033 16.4286 15.7143 16.4286H12.1429C11.3539 16.4286 10.7143 15.789 10.7143 15V12.422L8.03764 9.9887C7.97853 9.99616 7.91829 10 7.85714 10H6.04473L5.27381 13.5976C5.9318 13.7254 6.42857 14.3047 6.42857 15V18.5714C6.42857 19.3604 5.78897 20 5 20H1.42857C0.639593 20 0 19.3604 0 18.5714V15C0 14.211 0.639593 13.5714 1.42857 13.5714H3.08793L3.86661 9.93754C3.28214 9.75844 2.85714 9.21457 2.85714 8.57143V5C2.85714 4.21103 3.49674 3.57143 4.28571 3.57143H7.85714C8.64611 3.57143 9.28571 4.21103 9.28571 5V8.22733L11.4392 10.185C11.6469 10.0672 11.887 10 12.1429 10H13.7092L14.9847 6.42849C14.2028 6.42033 13.5714 5.7839 13.5714 5V1.42857C13.5714 0.639593 14.211 0 15 0Z" fill="#D9AD8A"/>
</svg>
