<svg width="21" height="20" viewBox="0 0 21 20" fill="none" xmlns="http://www.w3.org/2000/svg">
<g clip-path="url(#clip0_31_388)">
<path fill-rule="evenodd" clip-rule="evenodd" d="M17.0562 2.76331C16.3719 2.52151 15.6429 2.43205 14.9205 2.50118C14.2021 2.56991 13.5072 2.79377 12.8839 3.15722L5.81219 6.67937L4.64161 4.82387C4.63765 4.81761 4.63351 4.81147 4.62918 4.80547C4.50472 4.63297 4.32918 4.50395 4.12738 4.43668C3.92556 4.36941 3.70772 4.3673 3.50465 4.43062L3.50176 4.43152L1.54577 5.05974C1.30177 5.13742 1.09679 5.30727 0.97563 5.53288C0.85434 5.75872 0.825812 6.02295 0.896093 6.26948L0.899424 6.28117L2.55676 11.424L2.55979 11.4334C2.62982 11.6317 2.73875 11.8141 2.87996 11.97C3.02118 12.1259 3.19199 12.2521 3.38248 12.3414C3.57295 12.4306 3.77928 12.481 3.98944 12.4897C4.19691 12.4984 4.40402 12.4661 4.59902 12.3949L9.05268 10.9552L8.71872 12.5833C8.67945 12.7701 8.69189 12.9653 8.75522 13.1453C8.81869 13.3258 8.93056 13.4853 9.07861 13.6064C9.22664 13.7275 9.40514 13.8056 9.59456 13.8321C9.77788 13.8577 9.96459 13.8341 10.1356 13.7638L12.3167 13.0556C12.481 13.0067 12.6301 12.9162 12.7495 12.793C12.8688 12.6699 12.9544 12.5182 12.9981 12.3525L13.8579 9.41032L14.1638 9.31137L19.0049 7.74051C19.4123 7.61337 19.7529 7.33002 19.9521 6.95242C20.1515 6.57408 20.1926 6.13205 20.0665 5.72338C20.0644 5.71635 20.0619 5.7094 20.0594 5.70252C19.8029 5.02354 19.4014 4.40874 18.8826 3.90107C18.3639 3.3934 17.7405 3.0051 17.0562 2.76331ZM19.0569 17.126C19.8459 17.126 20.4855 17.7656 20.4855 18.5546C20.4855 19.3436 19.8459 19.9831 19.0569 19.9831H1.93638C1.1474 19.9831 0.507812 19.3436 0.507812 18.5546C0.507812 17.7656 1.1474 17.126 1.93638 17.126H19.0569Z" fill="#D9AD8A"/>
</g>
<defs>
<clipPath id="clip0_31_388">
<rect width="20" height="20" fill="white" transform="translate(0.5)"/>
</clipPath>
</defs>
</svg>
