<svg width="25" height="25" viewBox="0 0 25 25" fill="none" xmlns="http://www.w3.org/2000/svg">
<rect width="25" height="25" rx="12.5" fill="#303030"/>
<path d="M5.49457 11.928C5.33847 11.8629 5.23757 11.834 5.14487 11.7413C5.05207 11.6487 4.99997 11.523 4.99997 11.3919C4.99997 11.2609 5.05207 11.1352 5.14487 11.0425C5.23757 10.9498 5.26887 10.8943 5.49457 10.8281C5.72017 10.7619 16.6906 7.05328 16.6906 7.05328C16.8656 6.99339 17.054 6.98377 17.2343 7.02552C17.4145 7.06728 17.5795 7.15872 17.7103 7.28947C17.8412 7.42021 17.9327 7.58502 17.9745 7.76514C18.0162 7.94527 18.0066 8.13349 17.9467 8.30843C17.9467 8.30843 14.1503 19.3557 14.1039 19.5059C14.0575 19.6561 13.9977 19.7626 13.905 19.8553C13.8122 19.948 13.6864 20 13.5553 20C13.4241 20 13.2983 19.948 13.2056 19.8553C13.1129 19.7626 13.0917 19.7101 13.0221 19.5059C12.9526 19.3017 11.0827 13.9121 11.0827 13.9121C11.0827 13.9121 5.65067 11.9931 5.49457 11.928Z" fill="#303030"/>
<path d="M5.4945 11.928C5.3384 11.8629 5.2376 11.834 5.1448 11.7413C5.0521 11.6487 5 11.523 5 11.3919C5 11.2609 5.0521 11.1352 5.1448 11.0425C5.2376 10.9498 5.2689 10.8943 5.4945 10.8281C5.7202 10.7619 16.6906 7.05328 16.6906 7.05328C16.8656 6.99339 17.054 6.98377 17.2343 7.02552C17.4145 7.06728 17.5795 7.15872 17.7103 7.28947C17.8412 7.42021 17.9327 7.58502 17.9745 7.76514C18.0162 7.94527 18.0066 8.13349 17.9467 8.30843C17.9467 8.30843 14.1503 19.3557 14.1039 19.5059C14.0575 19.6561 13.9977 19.7626 13.905 19.8553C13.8122 19.948 13.6864 20 13.5553 20C13.4241 20 13.2983 19.948 13.2056 19.8553C13.1129 19.7626 13.0917 19.7101 13.0221 19.5059C12.9526 19.3017 11.0827 13.9121 11.0827 13.9121C11.0827 13.9121 5.6506 11.9931 5.4945 11.928Z" fill="#D9AD8A"/>
</svg>
